<svg xmlns="http://www.w3.org/2000/svg" viewBox="0 0 256 256" width="256" height="256">
  <!-- GhostTap icon — flat ghost with a mouse cursor, app blue on dark -->
  <rect width="256" height="256" rx="56" fill="#16161C"/>

  <!-- ghost (eyes cut out via evenodd) -->
  <path fill="#5A9BD4" fill-rule="evenodd" d="M 60 106 C 60 70 88 44 124 44 C 160 44 188 70 188 106 L 188 150 L 173 163 L 156 150 L 139 163 L 122 150 L 105 163 L 88 150 L 71 163 L 60 152 Z M 98 90 a 8 8 0 1 0 16 0 a 8 8 0 1 0 -16 0 Z M 134 90 a 8 8 0 1 0 16 0 a 8 8 0 1 0 -16 0 Z"/>

  <!-- mouse cursor -->
  <path fill="#FFFFFF" stroke="#16161C" stroke-width="7" stroke-linejoin="round" d="M 150 150 L 150 214 L 166 199 L 179 226 L 193 219 L 180 193 L 200 193 Z"/>
</svg>
