<svg xmlns="http://www.w3.org/2000/svg" viewBox="0 0 256 256" width="256" height="256">
  <!-- GhostTap icon — transparent background, eyes cut through to transparency -->
  <g fill="none" stroke="#5A9BD4" stroke-width="6" stroke-linecap="round">
    <ellipse cx="128" cy="196" rx="20" ry="6" opacity="0.55"/>
    <ellipse cx="128" cy="196" rx="36" ry="11" opacity="0.28"/>
  </g>

  <path fill="#5A9BD4" fill-rule="evenodd" d="M 64 118 C 64 82 92 56 128 56 C 164 56 192 82 192 118 L 192 160 L 176 174 L 160 160 L 144 174 L 128 160 L 112 174 L 96 160 L 80 174 L 64 160 Z M 102 100 a 8 8 0 1 0 16 0 a 8 8 0 1 0 -16 0 Z M 138 100 a 8 8 0 1 0 16 0 a 8 8 0 1 0 -16 0 Z"/>
</svg>
