<svg xmlns="http://www.w3.org/2000/svg" viewBox="0 0 256 256" width="256" height="256">
  <!-- GhostTap icon — flat ghost tapping, app blue on dark -->
  <defs>
    <linearGradient id="ghostFill" x1="0" y1="0" x2="0" y2="1">
      <stop offset="0" stop-color="#74B1E7"/>
      <stop offset="1" stop-color="#4B85BF"/>
    </linearGradient>
    <linearGradient id="bgFill" x1="0" y1="0" x2="0" y2="1">
      <stop offset="0" stop-color="#1B1B23"/>
      <stop offset="1" stop-color="#121216"/>
    </linearGradient>
    <radialGradient id="glow" cx="0.5" cy="0.4" r="0.55">
      <stop offset="0" stop-color="#5A9BD4" stop-opacity="0.30"/>
      <stop offset="1" stop-color="#5A9BD4" stop-opacity="0"/>
    </radialGradient>
  </defs>

  <rect width="256" height="256" rx="36" fill="url(#bgFill)"/>
  <rect width="256" height="256" rx="36" fill="url(#glow)"/>

  <!-- ghost (eyes cut out via evenodd) -->
  <path fill="url(#ghostFill)" fill-rule="evenodd" d="M 64 106 C 64 70 92 44 128 44 C 164 44 192 70 192 106 L 192 150 L 177 163 L 160 150 L 143 163 L 128 150 L 111 163 L 94 150 L 77 163 L 64 150 Z M 102 90 a 8 8 0 1 0 16 0 a 8 8 0 1 0 -16 0 Z M 138 90 a 8 8 0 1 0 16 0 a 8 8 0 1 0 -16 0 Z"/>

  <!-- tap point + pulse -->
  <ellipse cx="128" cy="200" rx="7" ry="5" fill="#7EB8EB"/>
  <g fill="none" stroke="#5A9BD4" stroke-linecap="round">
    <ellipse cx="128" cy="200" rx="21" ry="7" stroke-width="4.5" opacity="0.85"/>
    <ellipse cx="128" cy="200" rx="37" ry="12" stroke-width="4" opacity="0.5"/>
    <ellipse cx="128" cy="200" rx="53" ry="17" stroke-width="3.5" opacity="0.25"/>
  </g>
</svg>
